<mxfile host="" modified="2020-06-03T08:37:26.425Z" agent="5.0 (Windows NT 10.0; Win64; x64) AppleWebKit/537.36 (KHTML, like Gecko) Code/1.45.1 Chrome/78.0.3904.130 Electron/7.2.4 Safari/537.36" etag="znszOEVYqouZCAHnLU_t" version="13.1.3" pages="2">
    <diagram id="0hKvQ4ALHB5I764MkjNK" name="Page-1">
        <mxGraphModel dx="1299" dy="1162" grid="1" gridSize="10" guides="1" tooltips="1" connect="1" arrows="1" fold="1" page="1" pageScale="1" pageWidth="827" pageHeight="1169" math="0" shadow="0">
            <root>
                <mxCell id="0"/>
                <mxCell id="1" parent="0"/>
                <mxCell id="pR5qTpspDkptnF-OZhKg-18" value="" style="verticalLabelPosition=bottom;aspect=fixed;html=1;verticalAlign=top;strokeColor=none;align=center;outlineConnect=0;shape=mxgraph.citrix.license_server;fontSize=19;" parent="1" vertex="1">
                    <mxGeometry x="495" y="235" width="65" height="85" as="geometry"/>
                </mxCell>
                <mxCell id="pR5qTpspDkptnF-OZhKg-5" value="I know that github.com &lt;br style=&quot;font-size: 19px;&quot;&gt;lives at 192.30.253.112!" style="aspect=fixed;html=1;points=[];align=center;image;fontSize=19;image=https://app.diagrams.net/img/lib/mscae/DNS.svg;labelPosition=center;verticalLabelPosition=top;verticalAlign=bottom;" parent="1" vertex="1">
                    <mxGeometry x="140" y="210" width="110" height="110" as="geometry"/>
                </mxCell>
                <mxCell id="pR5qTpspDkptnF-OZhKg-6" value="" style="verticalLabelPosition=bottom;aspect=fixed;html=1;verticalAlign=top;strokeColor=none;align=center;outlineConnect=0;shape=mxgraph.citrix.license_server;fontSize=19;" parent="1" vertex="1">
                    <mxGeometry x="595" y="320" width="65" height="85" as="geometry"/>
                </mxCell>
                <mxCell id="pR5qTpspDkptnF-OZhKg-8" value="" style="verticalLabelPosition=bottom;aspect=fixed;html=1;verticalAlign=top;strokeColor=none;align=center;outlineConnect=0;shape=mxgraph.citrix.license_server;fontSize=19;" parent="1" vertex="1">
                    <mxGeometry x="515" y="325" width="65" height="85" as="geometry"/>
                </mxCell>
                <mxCell id="pR5qTpspDkptnF-OZhKg-10" value="" style="verticalLabelPosition=bottom;aspect=fixed;html=1;verticalAlign=top;strokeColor=none;align=center;outlineConnect=0;shape=mxgraph.citrix.license_server;fontSize=19;" parent="1" vertex="1">
                    <mxGeometry x="660" y="380" width="65" height="85" as="geometry"/>
                </mxCell>
                <mxCell id="pR5qTpspDkptnF-OZhKg-11" value="" style="verticalLabelPosition=bottom;aspect=fixed;html=1;verticalAlign=top;strokeColor=none;align=center;outlineConnect=0;shape=mxgraph.citrix.license_server;fontSize=19;" parent="1" vertex="1">
                    <mxGeometry x="540" y="380" width="65" height="85" as="geometry"/>
                </mxCell>
                <mxCell id="pR5qTpspDkptnF-OZhKg-13" value="" style="verticalLabelPosition=bottom;aspect=fixed;html=1;verticalAlign=top;strokeColor=none;align=center;outlineConnect=0;shape=mxgraph.citrix.license_server;fontSize=19;" parent="1" vertex="1">
                    <mxGeometry x="580" y="200" width="65" height="85" as="geometry"/>
                </mxCell>
                <mxCell id="pR5qTpspDkptnF-OZhKg-14" value="" style="verticalLabelPosition=bottom;aspect=fixed;html=1;verticalAlign=top;strokeColor=none;align=center;outlineConnect=0;shape=mxgraph.citrix.license_server;fontSize=19;" parent="1" vertex="1">
                    <mxGeometry x="695" y="290" width="65" height="85" as="geometry"/>
                </mxCell>
                <mxCell id="pR5qTpspDkptnF-OZhKg-15" value="" style="verticalLabelPosition=bottom;aspect=fixed;html=1;verticalAlign=top;strokeColor=none;align=center;outlineConnect=0;shape=mxgraph.citrix.license_server;fontSize=19;" parent="1" vertex="1">
                    <mxGeometry x="605" y="455" width="65" height="85" as="geometry"/>
                </mxCell>
                <mxCell id="pR5qTpspDkptnF-OZhKg-16" value="" style="verticalLabelPosition=bottom;aspect=fixed;html=1;verticalAlign=top;strokeColor=none;align=center;outlineConnect=0;shape=mxgraph.citrix.license_server;fontSize=19;" parent="1" vertex="1">
                    <mxGeometry x="625" y="240" width="65" height="85" as="geometry"/>
                </mxCell>
                <mxCell id="pR5qTpspDkptnF-OZhKg-17" value="" style="verticalLabelPosition=bottom;aspect=fixed;html=1;verticalAlign=top;strokeColor=none;align=center;outlineConnect=0;shape=mxgraph.citrix.license_server;fontSize=19;" parent="1" vertex="1">
                    <mxGeometry x="381" y="235" width="65" height="85" as="geometry"/>
                </mxCell>
                <mxCell id="pR5qTpspDkptnF-OZhKg-12" value="" style="verticalLabelPosition=bottom;aspect=fixed;html=1;verticalAlign=top;strokeColor=none;align=center;outlineConnect=0;shape=mxgraph.citrix.license_server;fontSize=19;" parent="1" vertex="1">
                    <mxGeometry x="430" y="310" width="65" height="85" as="geometry"/>
                </mxCell>
                <mxCell id="pR5qTpspDkptnF-OZhKg-7" value="" style="verticalLabelPosition=bottom;aspect=fixed;html=1;verticalAlign=top;strokeColor=none;align=center;outlineConnect=0;shape=mxgraph.citrix.license_server;fillColor=none;strokeWidth=19;perimeterSpacing=0;gradientColor=none;shadow=0;fontSize=19;" parent="1" vertex="1">
                    <mxGeometry x="430" y="390" width="65" height="85" as="geometry"/>
                </mxCell>
                <mxCell id="pR5qTpspDkptnF-OZhKg-20" style="rounded=0;orthogonalLoop=1;jettySize=auto;html=1;fontSize=19;" parent="1" source="pR5qTpspDkptnF-OZhKg-19" target="pR5qTpspDkptnF-OZhKg-5" edge="1">
                    <mxGeometry relative="1" as="geometry"/>
                </mxCell>
                <mxCell id="pR5qTpspDkptnF-OZhKg-19" value="github.com/vuejs/vue, please!" style="verticalLabelPosition=bottom;aspect=fixed;html=1;verticalAlign=top;strokeColor=none;align=center;outlineConnect=0;shape=mxgraph.citrix.laptop_1;fontSize=19;spacingLeft=120;" parent="1" vertex="1">
                    <mxGeometry x="20" y="405" width="91" height="77" as="geometry"/>
                </mxCell>
                <mxCell id="pR5qTpspDkptnF-OZhKg-26" style="edgeStyle=none;rounded=0;orthogonalLoop=1;jettySize=auto;html=1;fontSize=19;" parent="1" source="pR5qTpspDkptnF-OZhKg-24" target="pR5qTpspDkptnF-OZhKg-19" edge="1">
                    <mxGeometry relative="1" as="geometry"/>
                </mxCell>
                <mxCell id="pR5qTpspDkptnF-OZhKg-24" value="I know how to find&lt;br style=&quot;font-size: 19px;&quot;&gt;the &quot;/vuejs/vue&quot; part!" style="verticalLabelPosition=bottom;aspect=fixed;html=1;verticalAlign=top;strokeColor=none;align=center;outlineConnect=0;shape=stencil(7Vxbk5sgFP41PibDRdQ8tmn71Lf+AtYlG2ddzWC6l39fDOouGC1mk4qUTGYiJwrnfJ4bHDHA22pPDyxAgFYHlh4D/C1A6JnyjN7lgozEP3tJhDGQ7YI+MUn6maWsqOqrfzH+zLj8vzry8pG9ZPfH5sqs2DOeHeW/L01vGKxJTcHfA/BF0E/fKED4lQb46yDhPLnrAW/TsiiEIFlZVAH6cfXu72j6+MDL38W92vWk/s58z5+i9S/uFn1mPbH+0dgHWt/Q/sAG4xgwYXr62dHx9qmsgQGvUrswWcdS3d4kIdpIbTsPnRUSUJ6Kg5zyB7YSx6tdTh8k80CKwhvhUNN8U5rVC2OH/kUtIEnTXNHXrFrx8khrE1FObfqLwRq5AlWsQhWbQdXqjgFYUeIOWIkKVnJ9sPB/boTRNLCc0awQqGi17b/ARabAZb+DT/OyGgre12HQMJALHoZi+bQkYiRPEmMMpUpXyMJ2JWczZmG7LM/TMi9Fwgvk70kHxcUA7HYADCuiT9KCzr6BYsCQQOstOM+KYf7jhbEfQ4X/EaW1kPlu+viOf7J0AYj96ZEqQ9QTIbZdi9yLwReMXYevueKTD52XKe5o6PShx4cecwF6bhvbrj3ea3uvPcTagrz28gzPMc/nk+5ZBPDu21r3vTt9ZnTfND/sqTiUvzIdXIc+nhjFE9iUCDpXANpyjL3OwLzCAlrCm0bQywZQKRug0LhokGzcgYtoaLXtcbAgMAYrtj1OGkOFNaja9jhU0RqbV6McqqFDXbOgmWpF68gYr9D+LOzmeLVPEpjghRzy85dZI2yrRUZwQVfA0ivpZmAhOKGSDiNXwLo0gwihOVjAO65oinZF7uCVaHC17XG0YvOo6IwhXobUZsqzZdB2F6+tRCHUzHI7ARyai1wY0oVzMJ+7Ydtv+M39LkTxhBwojN2ZkmA9sGOzwA678GO0OoBdwQsRLQ8iZmjBCfa4sb8IfWv/BfCUgAWccfdQN0doZo5JPGHKW69t2u7Abl/osJ5BX4kZHZuz6ljy2bZw8XqL30xjy22B9pXACCIbwoY9i684Be+TVzUFX1b1X2M+tD5fUdknSCv8h8nSJSA+oH+SQdU8Yag/GxKOlNKtEEBbFukLYP8CqypCqCs5XJyd9kXwhuoT2/GxZXY39Ixo/Zkxw/r4RgoEPryZAo5NKX3iF/i9enaw7zdMWCaAf2zYx/SRQaxcNdHJXW8nCYe21Pc6+0B4PxTnn3qRb5M6dfAH);fillColor=none;strokeWidth=19;perimeterSpacing=0;gradientColor=none;shadow=1;opacity=35;fontSize=19;" parent="1" vertex="1">
                    <mxGeometry x="430" y="390" width="65" height="85" as="geometry"/>
                </mxCell>
                <mxCell id="pR5qTpspDkptnF-OZhKg-25" style="edgeStyle=none;rounded=0;orthogonalLoop=1;jettySize=auto;html=1;fontSize=19;" parent="1" source="pR5qTpspDkptnF-OZhKg-5" target="pR5qTpspDkptnF-OZhKg-24" edge="1">
                    <mxGeometry relative="1" as="geometry"/>
                </mxCell>
            </root>
        </mxGraphModel>
    </diagram>
    <diagram id="wHef59ZrtMF1bHIEb2L-" name="Page-2">
        <mxGraphModel dx="1528" dy="1367" grid="1" gridSize="10" guides="1" tooltips="1" connect="1" arrows="1" fold="1" page="1" pageScale="1" pageWidth="827" pageHeight="1169" math="0" shadow="0">
            <root>
                <mxCell id="3ppQgkshDZfZAYpczmnK-0"/>
                <mxCell id="3ppQgkshDZfZAYpczmnK-1" parent="3ppQgkshDZfZAYpczmnK-0"/>
                <mxCell id="3ppQgkshDZfZAYpczmnK-33" value="" style="group;fontSize=16;" parent="3ppQgkshDZfZAYpczmnK-1" vertex="1" connectable="0">
                    <mxGeometry x="390" y="80" width="65" height="85" as="geometry"/>
                </mxCell>
                <mxCell id="3ppQgkshDZfZAYpczmnK-34" value="" style="verticalLabelPosition=bottom;aspect=fixed;html=1;verticalAlign=top;strokeColor=none;align=center;outlineConnect=0;shape=mxgraph.citrix.license_server;fillColor=none;strokeWidth=19;perimeterSpacing=0;gradientColor=none;shadow=0;fontSize=16;" parent="3ppQgkshDZfZAYpczmnK-33" vertex="1">
                    <mxGeometry width="65" height="85" as="geometry"/>
                </mxCell>
                <mxCell id="3ppQgkshDZfZAYpczmnK-35" value="Got it!" style="verticalLabelPosition=bottom;aspect=fixed;html=1;verticalAlign=top;strokeColor=none;align=center;outlineConnect=0;shape=stencil(7Vxbk5sgFP41PibDRdQ8tmn71Lf+AtYlG2ddzWC6l39fDOouGC1mk4qUTGYiJwrnfJ4bHDHA22pPDyxAgFYHlh4D/C1A6JnyjN7lgozEP3tJhDGQ7YI+MUn6maWsqOqrfzH+zLj8vzry8pG9ZPfH5sqs2DOeHeW/L01vGKxJTcHfA/BF0E/fKED4lQb46yDhPLnrAW/TsiiEIFlZVAH6cfXu72j6+MDL38W92vWk/s58z5+i9S/uFn1mPbH+0dgHWt/Q/sAG4xgwYXr62dHx9qmsgQGvUrswWcdS3d4kIdpIbTsPnRUSUJ6Kg5zyB7YSx6tdTh8k80CKwhvhUNN8U5rVC2OH/kUtIEnTXNHXrFrx8khrE1FObfqLwRq5AlWsQhWbQdXqjgFYUeIOWIkKVnJ9sPB/boTRNLCc0awQqGi17b/ARabAZb+DT/OyGgre12HQMJALHoZi+bQkYiRPEmMMpUpXyMJ2JWczZmG7LM/TMi9Fwgvk70kHxcUA7HYADCuiT9KCzr6BYsCQQOstOM+KYf7jhbEfQ4X/EaW1kPlu+viOf7J0AYj96ZEqQ9QTIbZdi9yLwReMXYevueKTD52XKe5o6PShx4cecwF6bhvbrj3ea3uvPcTagrz28gzPMc/nk+5ZBPDu21r3vTt9ZnTfND/sqTiUvzIdXIc+nhjFE9iUCDpXANpyjL3OwLzCAlrCm0bQywZQKRug0LhokGzcgYtoaLXtcbAgMAYrtj1OGkOFNaja9jhU0RqbV6McqqFDXbOgmWpF68gYr9D+LOzmeLVPEpjghRzy85dZI2yrRUZwQVfA0ivpZmAhOKGSDiNXwLo0gwihOVjAO65oinZF7uCVaHC17XG0YvOo6IwhXobUZsqzZdB2F6+tRCHUzHI7ARyai1wY0oVzMJ+7Ydtv+M39LkTxhBwojN2ZkmA9sGOzwA678GO0OoBdwQsRLQ8iZmjBCfa4sb8IfWv/BfCUgAWccfdQN0doZo5JPGHKW69t2u7Abl/osJ5BX4kZHZuz6ljy2bZw8XqL30xjy22B9pXACCIbwoY9i684Be+TVzUFX1b1X2M+tD5fUdknSCv8h8nSJSA+oH+SQdU8Yag/GxKOlNKtEEBbFukLYP8CqypCqCs5XJyd9kXwhuoT2/GxZXY39Ixo/Zkxw/r4RgoEPryZAo5NKX3iF/i9enaw7zdMWCaAf2zYx/SRQaxcNdHJXW8nCYe21Pc6+0B4PxTnn3qRb5M6dfAH);fillColor=none;strokeWidth=19;perimeterSpacing=0;gradientColor=none;shadow=1;opacity=35;fontSize=16;" parent="3ppQgkshDZfZAYpczmnK-33" vertex="1">
                    <mxGeometry width="65" height="85" as="geometry"/>
                </mxCell>
                <mxCell id="3ppQgkshDZfZAYpczmnK-36" value="" style="group;fontSize=16;" parent="3ppQgkshDZfZAYpczmnK-1" vertex="1" connectable="0">
                    <mxGeometry x="515" y="190" width="65" height="85" as="geometry"/>
                </mxCell>
                <mxCell id="3ppQgkshDZfZAYpczmnK-37" value="" style="verticalLabelPosition=bottom;aspect=fixed;html=1;verticalAlign=top;strokeColor=none;align=center;outlineConnect=0;shape=mxgraph.citrix.license_server;fillColor=none;strokeWidth=19;perimeterSpacing=0;gradientColor=none;shadow=0;fontSize=16;" parent="3ppQgkshDZfZAYpczmnK-36" vertex="1">
                    <mxGeometry width="65" height="85" as="geometry"/>
                </mxCell>
                <mxCell id="3ppQgkshDZfZAYpczmnK-38" value="Got it!" style="verticalLabelPosition=bottom;aspect=fixed;html=1;verticalAlign=top;strokeColor=none;align=center;outlineConnect=0;shape=stencil(7Vxbk5sgFP41PibDRdQ8tmn71Lf+AtYlG2ddzWC6l39fDOouGC1mk4qUTGYiJwrnfJ4bHDHA22pPDyxAgFYHlh4D/C1A6JnyjN7lgozEP3tJhDGQ7YI+MUn6maWsqOqrfzH+zLj8vzry8pG9ZPfH5sqs2DOeHeW/L01vGKxJTcHfA/BF0E/fKED4lQb46yDhPLnrAW/TsiiEIFlZVAH6cfXu72j6+MDL38W92vWk/s58z5+i9S/uFn1mPbH+0dgHWt/Q/sAG4xgwYXr62dHx9qmsgQGvUrswWcdS3d4kIdpIbTsPnRUSUJ6Kg5zyB7YSx6tdTh8k80CKwhvhUNN8U5rVC2OH/kUtIEnTXNHXrFrx8khrE1FObfqLwRq5AlWsQhWbQdXqjgFYUeIOWIkKVnJ9sPB/boTRNLCc0awQqGi17b/ARabAZb+DT/OyGgre12HQMJALHoZi+bQkYiRPEmMMpUpXyMJ2JWczZmG7LM/TMi9Fwgvk70kHxcUA7HYADCuiT9KCzr6BYsCQQOstOM+KYf7jhbEfQ4X/EaW1kPlu+viOf7J0AYj96ZEqQ9QTIbZdi9yLwReMXYevueKTD52XKe5o6PShx4cecwF6bhvbrj3ea3uvPcTagrz28gzPMc/nk+5ZBPDu21r3vTt9ZnTfND/sqTiUvzIdXIc+nhjFE9iUCDpXANpyjL3OwLzCAlrCm0bQywZQKRug0LhokGzcgYtoaLXtcbAgMAYrtj1OGkOFNaja9jhU0RqbV6McqqFDXbOgmWpF68gYr9D+LOzmeLVPEpjghRzy85dZI2yrRUZwQVfA0ivpZmAhOKGSDiNXwLo0gwihOVjAO65oinZF7uCVaHC17XG0YvOo6IwhXobUZsqzZdB2F6+tRCHUzHI7ARyai1wY0oVzMJ+7Ydtv+M39LkTxhBwojN2ZkmA9sGOzwA678GO0OoBdwQsRLQ8iZmjBCfa4sb8IfWv/BfCUgAWccfdQN0doZo5JPGHKW69t2u7Abl/osJ5BX4kZHZuz6ljy2bZw8XqL30xjy22B9pXACCIbwoY9i684Be+TVzUFX1b1X2M+tD5fUdknSCv8h8nSJSA+oH+SQdU8Yag/GxKOlNKtEEBbFukLYP8CqypCqCs5XJyd9kXwhuoT2/GxZXY39Ixo/Zkxw/r4RgoEPryZAo5NKX3iF/i9enaw7zdMWCaAf2zYx/SRQaxcNdHJXW8nCYe21Pc6+0B4PxTnn3qRb5M6dfAH);fillColor=none;strokeWidth=19;perimeterSpacing=0;gradientColor=none;shadow=1;opacity=35;fontSize=16;" parent="3ppQgkshDZfZAYpczmnK-36" vertex="1">
                    <mxGeometry width="65" height="85" as="geometry"/>
                </mxCell>
                <mxCell id="3ppQgkshDZfZAYpczmnK-13" value="" style="verticalLabelPosition=bottom;aspect=fixed;html=1;verticalAlign=top;strokeColor=none;align=center;outlineConnect=0;shape=mxgraph.citrix.license_server;fontSize=16;" parent="3ppQgkshDZfZAYpczmnK-1" vertex="1">
                    <mxGeometry x="310" y="115" width="65" height="85" as="geometry"/>
                </mxCell>
                <mxCell id="3ppQgkshDZfZAYpczmnK-16" value="" style="verticalLabelPosition=bottom;aspect=fixed;html=1;verticalAlign=top;strokeColor=none;align=center;outlineConnect=0;shape=mxgraph.citrix.laptop_1;fontSize=16;" parent="3ppQgkshDZfZAYpczmnK-1" vertex="1">
                    <mxGeometry x="39" y="393" width="91" height="77" as="geometry"/>
                </mxCell>
                <mxCell id="3ppQgkshDZfZAYpczmnK-24" value="" style="group;fontSize=16;" parent="3ppQgkshDZfZAYpczmnK-1" vertex="1" connectable="0">
                    <mxGeometry x="265" y="192" width="65" height="85" as="geometry"/>
                </mxCell>
                <mxCell id="3ppQgkshDZfZAYpczmnK-14" value="" style="verticalLabelPosition=bottom;aspect=fixed;html=1;verticalAlign=top;strokeColor=none;align=center;outlineConnect=0;shape=mxgraph.citrix.license_server;fillColor=none;strokeWidth=19;perimeterSpacing=0;gradientColor=none;shadow=0;fontSize=16;" parent="3ppQgkshDZfZAYpczmnK-24" vertex="1">
                    <mxGeometry width="65" height="85" as="geometry"/>
                </mxCell>
                <mxCell id="3ppQgkshDZfZAYpczmnK-18" value="Got it!" style="verticalLabelPosition=bottom;aspect=fixed;html=1;verticalAlign=top;strokeColor=none;align=center;outlineConnect=0;shape=stencil(7Vxbk5sgFP41PibDRdQ8tmn71Lf+AtYlG2ddzWC6l39fDOouGC1mk4qUTGYiJwrnfJ4bHDHA22pPDyxAgFYHlh4D/C1A6JnyjN7lgozEP3tJhDGQ7YI+MUn6maWsqOqrfzH+zLj8vzry8pG9ZPfH5sqs2DOeHeW/L01vGKxJTcHfA/BF0E/fKED4lQb46yDhPLnrAW/TsiiEIFlZVAH6cfXu72j6+MDL38W92vWk/s58z5+i9S/uFn1mPbH+0dgHWt/Q/sAG4xgwYXr62dHx9qmsgQGvUrswWcdS3d4kIdpIbTsPnRUSUJ6Kg5zyB7YSx6tdTh8k80CKwhvhUNN8U5rVC2OH/kUtIEnTXNHXrFrx8khrE1FObfqLwRq5AlWsQhWbQdXqjgFYUeIOWIkKVnJ9sPB/boTRNLCc0awQqGi17b/ARabAZb+DT/OyGgre12HQMJALHoZi+bQkYiRPEmMMpUpXyMJ2JWczZmG7LM/TMi9Fwgvk70kHxcUA7HYADCuiT9KCzr6BYsCQQOstOM+KYf7jhbEfQ4X/EaW1kPlu+viOf7J0AYj96ZEqQ9QTIbZdi9yLwReMXYevueKTD52XKe5o6PShx4cecwF6bhvbrj3ea3uvPcTagrz28gzPMc/nk+5ZBPDu21r3vTt9ZnTfND/sqTiUvzIdXIc+nhjFE9iUCDpXANpyjL3OwLzCAlrCm0bQywZQKRug0LhokGzcgYtoaLXtcbAgMAYrtj1OGkOFNaja9jhU0RqbV6McqqFDXbOgmWpF68gYr9D+LOzmeLVPEpjghRzy85dZI2yrRUZwQVfA0ivpZmAhOKGSDiNXwLo0gwihOVjAO65oinZF7uCVaHC17XG0YvOo6IwhXobUZsqzZdB2F6+tRCHUzHI7ARyai1wY0oVzMJ+7Ydtv+M39LkTxhBwojN2ZkmA9sGOzwA678GO0OoBdwQsRLQ8iZmjBCfa4sb8IfWv/BfCUgAWccfdQN0doZo5JPGHKW69t2u7Abl/osJ5BX4kZHZuz6ljy2bZw8XqL30xjy22B9pXACCIbwoY9i684Be+TVzUFX1b1X2M+tD5fUdknSCv8h8nSJSA+oH+SQdU8Yag/GxKOlNKtEEBbFukLYP8CqypCqCs5XJyd9kXwhuoT2/GxZXY39Ixo/Zkxw/r4RgoEPryZAo5NKX3iF/i9enaw7zdMWCaAf2zYx/SRQaxcNdHJXW8nCYe21Pc6+0B4PxTnn3qRb5M6dfAH);fillColor=none;strokeWidth=19;perimeterSpacing=0;gradientColor=none;shadow=1;opacity=35;fontSize=16;" parent="3ppQgkshDZfZAYpczmnK-24" vertex="1">
                    <mxGeometry width="65" height="85" as="geometry"/>
                </mxCell>
                <mxCell id="3ppQgkshDZfZAYpczmnK-26" value="" style="verticalLabelPosition=bottom;aspect=fixed;html=1;verticalAlign=top;strokeColor=none;align=center;outlineConnect=0;shape=mxgraph.citrix.license_server;fontSize=16;" parent="3ppQgkshDZfZAYpczmnK-1" vertex="1">
                    <mxGeometry x="95" y="170" width="65" height="85" as="geometry"/>
                </mxCell>
                <mxCell id="3ppQgkshDZfZAYpczmnK-27" value="" style="verticalLabelPosition=bottom;aspect=fixed;html=1;verticalAlign=top;strokeColor=none;align=center;outlineConnect=0;shape=mxgraph.citrix.license_server;fontSize=16;" parent="3ppQgkshDZfZAYpczmnK-1" vertex="1">
                    <mxGeometry x="560" y="85" width="65" height="85" as="geometry"/>
                </mxCell>
                <mxCell id="3ppQgkshDZfZAYpczmnK-28" value="" style="verticalLabelPosition=bottom;aspect=fixed;html=1;verticalAlign=top;strokeColor=none;align=center;outlineConnect=0;shape=mxgraph.citrix.license_server;fontSize=16;" parent="3ppQgkshDZfZAYpczmnK-1" vertex="1">
                    <mxGeometry x="640" y="200" width="65" height="85" as="geometry"/>
                </mxCell>
                <mxCell id="3ppQgkshDZfZAYpczmnK-29" value="" style="verticalLabelPosition=bottom;aspect=fixed;html=1;verticalAlign=top;strokeColor=none;align=center;outlineConnect=0;shape=mxgraph.citrix.license_server;fontSize=16;" parent="3ppQgkshDZfZAYpczmnK-1" vertex="1">
                    <mxGeometry x="20" y="270" width="65" height="85" as="geometry"/>
                </mxCell>
                <mxCell id="3ppQgkshDZfZAYpczmnK-31" value="" style="verticalLabelPosition=bottom;aspect=fixed;html=1;verticalAlign=top;strokeColor=none;align=center;outlineConnect=0;shape=mxgraph.citrix.license_server;fontSize=16;" parent="3ppQgkshDZfZAYpczmnK-1" vertex="1">
                    <mxGeometry x="610" y="340" width="65" height="85" as="geometry"/>
                </mxCell>
                <mxCell id="3ppQgkshDZfZAYpczmnK-32" value="" style="verticalLabelPosition=bottom;aspect=fixed;html=1;verticalAlign=top;strokeColor=none;align=center;outlineConnect=0;shape=mxgraph.citrix.license_server;fontSize=16;" parent="3ppQgkshDZfZAYpczmnK-1" vertex="1">
                    <mxGeometry x="235" y="425" width="65" height="85" as="geometry"/>
                </mxCell>
                <mxCell id="3ppQgkshDZfZAYpczmnK-39" value="" style="group;fontSize=16;" parent="3ppQgkshDZfZAYpczmnK-1" vertex="1" connectable="0">
                    <mxGeometry x="410" y="460" width="65" height="85" as="geometry"/>
                </mxCell>
                <mxCell id="3ppQgkshDZfZAYpczmnK-40" value="" style="verticalLabelPosition=bottom;aspect=fixed;html=1;verticalAlign=top;strokeColor=none;align=center;outlineConnect=0;shape=mxgraph.citrix.license_server;fillColor=none;strokeWidth=19;perimeterSpacing=0;gradientColor=none;shadow=0;fontSize=16;" parent="3ppQgkshDZfZAYpczmnK-39" vertex="1">
                    <mxGeometry width="65" height="85" as="geometry"/>
                </mxCell>
                <mxCell id="3ppQgkshDZfZAYpczmnK-41" value="Got it!" style="verticalLabelPosition=bottom;aspect=fixed;html=1;verticalAlign=top;strokeColor=none;align=center;outlineConnect=0;shape=stencil(7Vxbk5sgFP41PibDRdQ8tmn71Lf+AtYlG2ddzWC6l39fDOouGC1mk4qUTGYiJwrnfJ4bHDHA22pPDyxAgFYHlh4D/C1A6JnyjN7lgozEP3tJhDGQ7YI+MUn6maWsqOqrfzH+zLj8vzry8pG9ZPfH5sqs2DOeHeW/L01vGKxJTcHfA/BF0E/fKED4lQb46yDhPLnrAW/TsiiEIFlZVAH6cfXu72j6+MDL38W92vWk/s58z5+i9S/uFn1mPbH+0dgHWt/Q/sAG4xgwYXr62dHx9qmsgQGvUrswWcdS3d4kIdpIbTsPnRUSUJ6Kg5zyB7YSx6tdTh8k80CKwhvhUNN8U5rVC2OH/kUtIEnTXNHXrFrx8khrE1FObfqLwRq5AlWsQhWbQdXqjgFYUeIOWIkKVnJ9sPB/boTRNLCc0awQqGi17b/ARabAZb+DT/OyGgre12HQMJALHoZi+bQkYiRPEmMMpUpXyMJ2JWczZmG7LM/TMi9Fwgvk70kHxcUA7HYADCuiT9KCzr6BYsCQQOstOM+KYf7jhbEfQ4X/EaW1kPlu+viOf7J0AYj96ZEqQ9QTIbZdi9yLwReMXYevueKTD52XKe5o6PShx4cecwF6bhvbrj3ea3uvPcTagrz28gzPMc/nk+5ZBPDu21r3vTt9ZnTfND/sqTiUvzIdXIc+nhjFE9iUCDpXANpyjL3OwLzCAlrCm0bQywZQKRug0LhokGzcgYtoaLXtcbAgMAYrtj1OGkOFNaja9jhU0RqbV6McqqFDXbOgmWpF68gYr9D+LOzmeLVPEpjghRzy85dZI2yrRUZwQVfA0ivpZmAhOKGSDiNXwLo0gwihOVjAO65oinZF7uCVaHC17XG0YvOo6IwhXobUZsqzZdB2F6+tRCHUzHI7ARyai1wY0oVzMJ+7Ydtv+M39LkTxhBwojN2ZkmA9sGOzwA678GO0OoBdwQsRLQ8iZmjBCfa4sb8IfWv/BfCUgAWccfdQN0doZo5JPGHKW69t2u7Abl/osJ5BX4kZHZuz6ljy2bZw8XqL30xjy22B9pXACCIbwoY9i684Be+TVzUFX1b1X2M+tD5fUdknSCv8h8nSJSA+oH+SQdU8Yag/GxKOlNKtEEBbFukLYP8CqypCqCs5XJyd9kXwhuoT2/GxZXY39Ixo/Zkxw/r4RgoEPryZAo5NKX3iF/i9enaw7zdMWCaAf2zYx/SRQaxcNdHJXW8nCYe21Pc6+0B4PxTnn3qRb5M6dfAH);fillColor=none;strokeWidth=19;perimeterSpacing=0;gradientColor=none;shadow=1;opacity=35;fontSize=16;" parent="3ppQgkshDZfZAYpczmnK-39" vertex="1">
                    <mxGeometry width="65" height="85" as="geometry"/>
                </mxCell>
                <mxCell id="3ppQgkshDZfZAYpczmnK-42" value="" style="group;fontSize=16;" parent="3ppQgkshDZfZAYpczmnK-1" vertex="1" connectable="0">
                    <mxGeometry x="170" y="115" width="65" height="85" as="geometry"/>
                </mxCell>
                <mxCell id="3ppQgkshDZfZAYpczmnK-43" value="" style="verticalLabelPosition=bottom;aspect=fixed;html=1;verticalAlign=top;strokeColor=none;align=center;outlineConnect=0;shape=mxgraph.citrix.license_server;fillColor=none;strokeWidth=19;perimeterSpacing=0;gradientColor=none;shadow=0;fontSize=16;" parent="3ppQgkshDZfZAYpczmnK-42" vertex="1">
                    <mxGeometry width="65" height="85" as="geometry"/>
                </mxCell>
                <mxCell id="3ppQgkshDZfZAYpczmnK-44" value="Got it!" style="verticalLabelPosition=bottom;aspect=fixed;html=1;verticalAlign=top;strokeColor=none;align=center;outlineConnect=0;shape=stencil(7Vxbk5sgFP41PibDRdQ8tmn71Lf+AtYlG2ddzWC6l39fDOouGC1mk4qUTGYiJwrnfJ4bHDHA22pPDyxAgFYHlh4D/C1A6JnyjN7lgozEP3tJhDGQ7YI+MUn6maWsqOqrfzH+zLj8vzry8pG9ZPfH5sqs2DOeHeW/L01vGKxJTcHfA/BF0E/fKED4lQb46yDhPLnrAW/TsiiEIFlZVAH6cfXu72j6+MDL38W92vWk/s58z5+i9S/uFn1mPbH+0dgHWt/Q/sAG4xgwYXr62dHx9qmsgQGvUrswWcdS3d4kIdpIbTsPnRUSUJ6Kg5zyB7YSx6tdTh8k80CKwhvhUNN8U5rVC2OH/kUtIEnTXNHXrFrx8khrE1FObfqLwRq5AlWsQhWbQdXqjgFYUeIOWIkKVnJ9sPB/boTRNLCc0awQqGi17b/ARabAZb+DT/OyGgre12HQMJALHoZi+bQkYiRPEmMMpUpXyMJ2JWczZmG7LM/TMi9Fwgvk70kHxcUA7HYADCuiT9KCzr6BYsCQQOstOM+KYf7jhbEfQ4X/EaW1kPlu+viOf7J0AYj96ZEqQ9QTIbZdi9yLwReMXYevueKTD52XKe5o6PShx4cecwF6bhvbrj3ea3uvPcTagrz28gzPMc/nk+5ZBPDu21r3vTt9ZnTfND/sqTiUvzIdXIc+nhjFE9iUCDpXANpyjL3OwLzCAlrCm0bQywZQKRug0LhokGzcgYtoaLXtcbAgMAYrtj1OGkOFNaja9jhU0RqbV6McqqFDXbOgmWpF68gYr9D+LOzmeLVPEpjghRzy85dZI2yrRUZwQVfA0ivpZmAhOKGSDiNXwLo0gwihOVjAO65oinZF7uCVaHC17XG0YvOo6IwhXobUZsqzZdB2F6+tRCHUzHI7ARyai1wY0oVzMJ+7Ydtv+M39LkTxhBwojN2ZkmA9sGOzwA678GO0OoBdwQsRLQ8iZmjBCfa4sb8IfWv/BfCUgAWccfdQN0doZo5JPGHKW69t2u7Abl/osJ5BX4kZHZuz6ljy2bZw8XqL30xjy22B9pXACCIbwoY9i684Be+TVzUFX1b1X2M+tD5fUdknSCv8h8nSJSA+oH+SQdU8Yag/GxKOlNKtEEBbFukLYP8CqypCqCs5XJyd9kXwhuoT2/GxZXY39Ixo/Zkxw/r4RgoEPryZAo5NKX3iF/i9enaw7zdMWCaAf2zYx/SRQaxcNdHJXW8nCYe21Pc6+0B4PxTnn3qRb5M6dfAH);fillColor=none;strokeWidth=19;perimeterSpacing=0;gradientColor=none;shadow=1;opacity=35;fontSize=16;" parent="3ppQgkshDZfZAYpczmnK-42" vertex="1">
                    <mxGeometry width="65" height="85" as="geometry"/>
                </mxCell>
                <mxCell id="3ppQgkshDZfZAYpczmnK-45" value="" style="group;fontSize=16;" parent="3ppQgkshDZfZAYpczmnK-1" vertex="1" connectable="0">
                    <mxGeometry x="515" y="340" width="65" height="85" as="geometry"/>
                </mxCell>
                <mxCell id="3ppQgkshDZfZAYpczmnK-46" value="" style="verticalLabelPosition=bottom;aspect=fixed;html=1;verticalAlign=top;strokeColor=none;align=center;outlineConnect=0;shape=mxgraph.citrix.license_server;fillColor=none;strokeWidth=19;perimeterSpacing=0;gradientColor=none;shadow=0;fontSize=16;" parent="3ppQgkshDZfZAYpczmnK-45" vertex="1">
                    <mxGeometry width="65" height="85" as="geometry"/>
                </mxCell>
                <mxCell id="3ppQgkshDZfZAYpczmnK-47" value="Got it!" style="verticalLabelPosition=bottom;aspect=fixed;html=1;verticalAlign=top;strokeColor=none;align=center;outlineConnect=0;shape=stencil(7Vxbk5sgFP41PibDRdQ8tmn71Lf+AtYlG2ddzWC6l39fDOouGC1mk4qUTGYiJwrnfJ4bHDHA22pPDyxAgFYHlh4D/C1A6JnyjN7lgozEP3tJhDGQ7YI+MUn6maWsqOqrfzH+zLj8vzry8pG9ZPfH5sqs2DOeHeW/L01vGKxJTcHfA/BF0E/fKED4lQb46yDhPLnrAW/TsiiEIFlZVAH6cfXu72j6+MDL38W92vWk/s58z5+i9S/uFn1mPbH+0dgHWt/Q/sAG4xgwYXr62dHx9qmsgQGvUrswWcdS3d4kIdpIbTsPnRUSUJ6Kg5zyB7YSx6tdTh8k80CKwhvhUNN8U5rVC2OH/kUtIEnTXNHXrFrx8khrE1FObfqLwRq5AlWsQhWbQdXqjgFYUeIOWIkKVnJ9sPB/boTRNLCc0awQqGi17b/ARabAZb+DT/OyGgre12HQMJALHoZi+bQkYiRPEmMMpUpXyMJ2JWczZmG7LM/TMi9Fwgvk70kHxcUA7HYADCuiT9KCzr6BYsCQQOstOM+KYf7jhbEfQ4X/EaW1kPlu+viOf7J0AYj96ZEqQ9QTIbZdi9yLwReMXYevueKTD52XKe5o6PShx4cecwF6bhvbrj3ea3uvPcTagrz28gzPMc/nk+5ZBPDu21r3vTt9ZnTfND/sqTiUvzIdXIc+nhjFE9iUCDpXANpyjL3OwLzCAlrCm0bQywZQKRug0LhokGzcgYtoaLXtcbAgMAYrtj1OGkOFNaja9jhU0RqbV6McqqFDXbOgmWpF68gYr9D+LOzmeLVPEpjghRzy85dZI2yrRUZwQVfA0ivpZmAhOKGSDiNXwLo0gwihOVjAO65oinZF7uCVaHC17XG0YvOo6IwhXobUZsqzZdB2F6+tRCHUzHI7ARyai1wY0oVzMJ+7Ydtv+M39LkTxhBwojN2ZkmA9sGOzwA678GO0OoBdwQsRLQ8iZmjBCfa4sb8IfWv/BfCUgAWccfdQN0doZo5JPGHKW69t2u7Abl/osJ5BX4kZHZuz6ljy2bZw8XqL30xjy22B9pXACCIbwoY9i684Be+TVzUFX1b1X2M+tD5fUdknSCv8h8nSJSA+oH+SQdU8Yag/GxKOlNKtEEBbFukLYP8CqypCqCs5XJyd9kXwhuoT2/GxZXY39Ixo/Zkxw/r4RgoEPryZAo5NKX3iF/i9enaw7zdMWCaAf2zYx/SRQaxcNdHJXW8nCYe21Pc6+0B4PxTnn3qRb5M6dfAH);fillColor=none;strokeWidth=19;perimeterSpacing=0;gradientColor=none;shadow=1;opacity=35;fontSize=16;" parent="3ppQgkshDZfZAYpczmnK-45" vertex="1">
                    <mxGeometry width="65" height="85" as="geometry"/>
                </mxCell>
                <mxCell id="3ppQgkshDZfZAYpczmnK-48" value="" style="group;fontSize=16;" parent="3ppQgkshDZfZAYpczmnK-1" vertex="1" connectable="0">
                    <mxGeometry x="140" y="470" width="65" height="85" as="geometry"/>
                </mxCell>
                <mxCell id="3ppQgkshDZfZAYpczmnK-49" value="" style="verticalLabelPosition=bottom;aspect=fixed;html=1;verticalAlign=top;strokeColor=none;align=center;outlineConnect=0;shape=mxgraph.citrix.license_server;fillColor=none;strokeWidth=19;perimeterSpacing=0;gradientColor=none;shadow=0;fontSize=16;" parent="3ppQgkshDZfZAYpczmnK-48" vertex="1">
                    <mxGeometry width="65" height="85" as="geometry"/>
                </mxCell>
                <mxCell id="3ppQgkshDZfZAYpczmnK-50" value="Got it!" style="verticalLabelPosition=bottom;aspect=fixed;html=1;verticalAlign=top;strokeColor=none;align=center;outlineConnect=0;shape=stencil(7Vxbk5sgFP41PibDRdQ8tmn71Lf+AtYlG2ddzWC6l39fDOouGC1mk4qUTGYiJwrnfJ4bHDHA22pPDyxAgFYHlh4D/C1A6JnyjN7lgozEP3tJhDGQ7YI+MUn6maWsqOqrfzH+zLj8vzry8pG9ZPfH5sqs2DOeHeW/L01vGKxJTcHfA/BF0E/fKED4lQb46yDhPLnrAW/TsiiEIFlZVAH6cfXu72j6+MDL38W92vWk/s58z5+i9S/uFn1mPbH+0dgHWt/Q/sAG4xgwYXr62dHx9qmsgQGvUrswWcdS3d4kIdpIbTsPnRUSUJ6Kg5zyB7YSx6tdTh8k80CKwhvhUNN8U5rVC2OH/kUtIEnTXNHXrFrx8khrE1FObfqLwRq5AlWsQhWbQdXqjgFYUeIOWIkKVnJ9sPB/boTRNLCc0awQqGi17b/ARabAZb+DT/OyGgre12HQMJALHoZi+bQkYiRPEmMMpUpXyMJ2JWczZmG7LM/TMi9Fwgvk70kHxcUA7HYADCuiT9KCzr6BYsCQQOstOM+KYf7jhbEfQ4X/EaW1kPlu+viOf7J0AYj96ZEqQ9QTIbZdi9yLwReMXYevueKTD52XKe5o6PShx4cecwF6bhvbrj3ea3uvPcTagrz28gzPMc/nk+5ZBPDu21r3vTt9ZnTfND/sqTiUvzIdXIc+nhjFE9iUCDpXANpyjL3OwLzCAlrCm0bQywZQKRug0LhokGzcgYtoaLXtcbAgMAYrtj1OGkOFNaja9jhU0RqbV6McqqFDXbOgmWpF68gYr9D+LOzmeLVPEpjghRzy85dZI2yrRUZwQVfA0ivpZmAhOKGSDiNXwLo0gwihOVjAO65oinZF7uCVaHC17XG0YvOo6IwhXobUZsqzZdB2F6+tRCHUzHI7ARyai1wY0oVzMJ+7Ydtv+M39LkTxhBwojN2ZkmA9sGOzwA678GO0OoBdwQsRLQ8iZmjBCfa4sb8IfWv/BfCUgAWccfdQN0doZo5JPGHKW69t2u7Abl/osJ5BX4kZHZuz6ljy2bZw8XqL30xjy22B9pXACCIbwoY9i684Be+TVzUFX1b1X2M+tD5fUdknSCv8h8nSJSA+oH+SQdU8Yag/GxKOlNKtEEBbFukLYP8CqypCqCs5XJyd9kXwhuoT2/GxZXY39Ixo/Zkxw/r4RgoEPryZAo5NKX3iF/i9enaw7zdMWCaAf2zYx/SRQaxcNdHJXW8nCYe21Pc6+0B4PxTnn3qRb5M6dfAH);fillColor=none;strokeWidth=19;perimeterSpacing=0;gradientColor=none;shadow=1;opacity=35;fontSize=16;" parent="3ppQgkshDZfZAYpczmnK-48" vertex="1">
                    <mxGeometry width="65" height="85" as="geometry"/>
                </mxCell>
                <mxCell id="3ppQgkshDZfZAYpczmnK-30" value="" style="verticalLabelPosition=bottom;aspect=fixed;html=1;verticalAlign=top;strokeColor=none;align=center;outlineConnect=0;shape=mxgraph.citrix.license_server;fontSize=16;" parent="3ppQgkshDZfZAYpczmnK-1" vertex="1">
                    <mxGeometry x="375" y="360" width="65" height="85" as="geometry"/>
                </mxCell>
                <mxCell id="TuYYcaxeacQSH-0u1y0Y-12" value="&lt;b style=&quot;font-size: 16px&quot;&gt;QmWpvK4bYR7k9b1feM48faPfNnFxdbhJHw7QJ !!!&lt;/b&gt;" style="shape=callout;whiteSpace=wrap;html=1;perimeter=calloutPerimeter;shadow=1;strokeWidth=1;fillColor=none;gradientColor=none;position2=0;size=27;position=0.05;rotation=-15;fontSize=16;" parent="3ppQgkshDZfZAYpczmnK-1" vertex="1">
                    <mxGeometry x="129.67" y="297.52" width="391.66" height="70" as="geometry"/>
                </mxCell>
            </root>
        </mxGraphModel>
    </diagram>
</mxfile>